<svg xmlns="http://www.w3.org/2000/svg" width="1373" height="1373" fill="none" viewBox="0 0 1373 1373"><path fill="#282828" d="M496.61 235.1L592.8 377.67C592.91 377.83 593.12 377.86 593.26 377.74L680.74 306.23C680.89 306.1 681.11 306.11 681.26 306.25L768.61 386.65C768.86 386.88 769.14 386.95 769.47 386.87L927.03 346.27C927.66 346.11 928.01 346.35 928.08 346.99C933.51 393.58 938.93 440.3 944.32 487.15C945.41 496.63 944.24 506.25 943.76 515.76C942.23 543.86 940.7 571.98 939.17 600.11C938.84 606.28 942.94 615.46 944.88 621.51C944.99 621.83 945.2 622.05 945.52 622.17L1013.47 646.84C1013.81 646.96 1013.91 647.19 1013.78 647.52L988.46 712.21L985.19 720.56C985.08 720.83 985.07 721.11 985.14 721.4L994.73 758.06C994.89 758.66 995.24 759.19 995.74 759.55L1100.14 835.4C1100.74 835.84 1100.72 836.26 1100.09 836.65L991.83 903.58C991.3 903.91 990.93 904.45 990.81 905.06L982.1 949.51C982.04 949.83 982.11 950.16 982.28 950.44L1055.99 1064.46C1056.76 1065.65 1056.43 1066.24 1055.02 1066.24L921.71 1066.25C921.11 1066.25 920.54 1066.48 920.1 1066.89L881.46 1103.53C881.19 1103.78 881.06 1104.1 881.05 1104.47L878.19 1249.64L877.97 1255.18C877.96 1255.59 877.52 1255.85 877.15 1255.66L871.07 1252.48L751.42 1173.6C751.13 1173.41 750.78 1173.35 750.45 1173.43L706.52 1183.93C706.15 1184.02 705.86 1184.21 705.63 1184.52C687.64 1209.57 669.66 1234.63 651.68 1259.68C651.12 1260.46 650.7 1260.96 650.42 1261.18C649.6 1261.82 649 1261.66 648.61 1260.7L615.66 1178.48C615.59 1178.25 615.29 1177.89 614.76 1177.39C614.44 1177.08 614.04 1176.85 613.57 1176.72C608.56 1175.27 603.48 1173.83 598.32 1172.38C597.98 1172.28 597.61 1172.36 597.35 1172.59L581.99 1186.14C581.28 1186.77 580.39 1187.17 579.45 1187.28L392.78 1209.05C392.26 1209.11 391.79 1208.98 391.36 1208.67L333.47 1165.54C333.19 1165.33 332.88 1165.28 332.55 1165.37L273.73 1181.99C273.32 1182.11 272.88 1181.96 272.61 1181.63L191.4 1080.58C191.15 1080.27 191.08 1079.85 191.21 1079.48L213.79 1014.58C213.95 1014.13 214.23 1014.03 214.64 1014.28L241 1030.28C241.65 1030.67 242.1 1030.51 242.33 1029.78L246.8 1015.68C246.94 1015.25 247.37 1014.98 247.82 1015.04L253.04 1015.81C253.39 1015.86 253.65 1015.51 253.51 1015.19L246.32 998.96C246.08 998.42 246.18 997.8 246.56 997.35L308.02 926.25C308.39 925.82 308.3 925.55 307.75 925.43L260.24 915.22C259.75 915.11 259.5 915.31 259.5 915.82V939.26C259.5 939.56 259.16 939.72 258.92 939.54L219.61 908.81C219.09 908.4 218.33 908.52 217.95 909.06L208.08 923.28C207.72 923.8 207.37 923.79 207.02 923.26L176.54 876.22C176.15 875.61 176.12 874.84 176.48 874.21L186.6 856.65C186.41 855.9 186.03 855.28 185.44 854.81C182.56 852.5 179.54 850.25 176.38 848.04L176.26 847.84C174.67 845.75 172.79 844.24 170.64 843.32L139.83 818.24C138.69 817.32 137.99 815.96 137.89 814.49L129.02 682.52C129 682.21 129.08 681.9 129.26 681.64C170.16 620.78 211.05 559.93 251.94 499.1C253.39 496.94 255.1 495 257.06 493.29C286.28 467.76 315.58 442.07 344.96 416.24L358.78 404.31C359.03 404.1 359.31 403.98 359.63 403.95L404.49 400.02C404.82 399.99 405.05 399.81 405.17 399.5L463.48 242.49L476.79 206.68C476.94 206.28 477.14 206.26 477.38 206.61L496.61 235.1ZM425.1 408.74C425.04 408.9 425.08 409.08 425.2 409.19L502.69 482.67C502.86 482.84 503.14 482.82 503.3 482.64L574.82 397.23C574.94 397.09 574.95 396.88 574.85 396.73L483.46 255.71C483.27 255.42 482.84 255.47 482.72 255.79L425.1 408.74ZM680.47 349.5C680.68 349.32 681 349.47 681 349.74V394.63C681 394.8 681.14 394.94 681.31 394.95L738.31 397.03C738.6 397.04 738.76 396.69 738.55 396.48L681.11 339.29C681 339.18 680.81 339.17 680.69 339.27L617.75 390.43C617.52 390.62 617.65 391 617.95 391H632.85C632.93 391 633 390.97 633.06 390.92L680.47 349.5ZM900.27 391.26C900.54 391.19 900.77 391.47 900.64 391.71L869.15 454.71C869.07 454.86 869.13 455.05 869.27 455.13L924.44 486.67C924.67 486.81 924.95 486.61 924.92 486.35L909.05 377.37C909.02 377.19 908.84 377.07 908.66 377.11L785.67 404.84C785.4 404.9 785.33 405.26 785.55 405.42L804.84 418.88C804.92 418.94 805.02 418.95 805.12 418.93L900.27 391.26ZM503.65 500.61L417.34 418.37C417.09 418.14 416.8 418.03 416.47 418.04L369.53 419.97C369.23 419.98 368.96 420.09 368.73 420.29C336.66 448.05 304.65 475.86 272.69 503.72C270.75 505.41 269.06 507.34 267.63 509.49C228.76 567.89 189.69 626.5 150.43 685.33C150.21 685.66 150.36 686.11 150.74 686.25L207.29 706.75C207.67 706.89 207.85 707.32 207.69 707.69L161.3 811.32C161.13 811.71 161.24 812.17 161.57 812.44L187.44 833.53C187.79 833.81 188.26 833.87 188.65 833.66L409.51 717.26C409.84 717.09 410.18 717.08 410.51 717.25L615.32 822.65C615.76 822.88 615.99 823.24 616.02 823.73L625.98 988.26C626.01 988.75 626.25 989.12 626.68 989.35L717.52 1036.74C717.85 1036.91 718.18 1036.91 718.51 1036.74L817.67 987.16C817.85 987.08 817.97 986.89 817.96 986.69L816.01 761.51C816 761.19 815.88 760.92 815.65 760.7C776.27 724.53 736.85 688.42 697.38 652.35C696.35 651.4 695.14 650.76 693.77 650.43C625.52 633.72 557.39 617.02 489.37 600.33C488.48 600.11 487.62 600.18 486.78 600.53L237.71 704.67C237.42 704.79 237.13 704.53 237.2 704.23L271.85 563.54C271.94 563.19 272.13 562.91 272.44 562.71L415.52 467.32C415.79 467.13 416.05 467.16 416.29 467.4L425.59 476.69C425.78 476.87 425.75 477.18 425.53 477.32L284.52 572.64C284.18 572.87 283.94 573.22 283.83 573.61L259.23 665.18C259.17 665.41 259.44 665.57 259.61 665.41L403.59 527.35C403.84 527.11 404.11 527.09 404.39 527.3C432.22 547.31 460.02 567.34 487.8 587.4C489.27 588.46 490.88 589.21 492.63 589.65C560.84 606.71 628.95 623.74 696.97 640.74C697.66 640.91 698.29 641.25 698.82 641.72L733.39 672.42C733.67 672.67 734.11 672.55 734.22 672.19L767.85 567.55C767.96 567.19 768.19 566.93 768.53 566.77L915.33 497.29C915.75 497.1 915.76 496.88 915.36 496.64L766.97 409.57C766.32 409.19 765.61 408.98 764.86 408.95L589.52 401.01C589.18 401 588.9 401.12 588.67 401.38L504.34 500.58C504.13 500.83 503.9 500.84 503.65 500.61ZM761.74 696.67C761.9 696.81 762.14 696.79 762.27 696.62L823.91 617.12C823.97 617.05 824.05 617 824.14 616.99L917.71 601.05C917.88 601.02 918.01 600.88 918.01 600.71L921.98 505.64C922 505.36 921.71 505.18 921.47 505.3L776.11 576.92C776.03 576.96 775.96 577.03 775.93 577.12L740.11 676.78C740.06 676.92 740.1 677.07 740.21 677.17L761.74 696.67ZM401.31 539.23C401.17 539.13 400.98 539.15 400.86 539.27L367.22 572.6C367.06 572.76 367.09 573.03 367.29 573.15L434.81 612.89C434.91 612.94 435.03 612.95 435.14 612.9L476.48 593.27C476.72 593.15 476.75 592.82 476.53 592.66L401.31 539.23ZM769.46 705.38L824.74 756.73C824.92 756.9 825.02 757.13 825.02 757.37L829 994.26C829.01 994.73 828.74 995.16 828.32 995.37L717.87 1049.54C717.31 1049.82 716.65 1049.8 716.1 1049.5L697.79 1039.42C697.32 1039.16 696.74 1039.26 696.38 1039.66L596.63 1151.32C596.33 1151.65 596.46 1152.18 596.88 1152.33L622.14 1161.64C622.7 1161.85 623.32 1161.83 623.87 1161.59L663.15 1144.35C663.68 1144.12 664.28 1144.16 664.77 1144.46L702.08 1167.44C702.66 1167.79 703.35 1167.9 704.01 1167.73L745.25 1157.19C745.72 1157.07 746.07 1156.68 746.15 1156.21L751.9 1120.5C751.95 1120.18 752.14 1119.89 752.43 1119.72L823.52 1077.28C823.89 1077.06 824.27 1077.01 824.68 1077.14L865.49 1089.85C865.82 1089.95 866.1 1089.88 866.35 1089.65L906.56 1051.42C906.84 1051.15 906.97 1050.81 906.96 1050.42C906.4 1038.47 905.78 1026.48 905.11 1014.45C905.03 1013 905.3 1011.61 905.91 1010.29C913.46 994.24 921.13 978.25 928.92 962.3C929.05 962.03 929.26 961.82 929.53 961.69L963.05 945.43C963.65 945.14 964.07 944.58 964.2 943.93L972.84 898.79C972.94 898.27 972.8 897.73 972.48 897.31L946.33 863.44C946.12 863.18 946.02 862.85 946.03 862.51L948.98 787.51C948.99 787.18 949.13 786.86 949.36 786.62L976.46 758.54C976.82 758.17 976.94 757.73 976.83 757.24L971.15 731.64C971.07 731.28 970.71 731.05 970.35 731.13L962.87 732.81C962.29 732.94 961.89 732.73 961.67 732.18L915.18 615.48C915.07 615.19 914.77 615.02 914.47 615.07L829.44 628.95C829.13 628.99 828.85 629.16 828.65 629.41L769.4 704.5C769.19 704.77 769.22 705.15 769.46 705.38ZM977.26 660.7C977.54 660.8 977.55 661.19 977.27 661.3L948.06 673.06C947.9 673.13 947.82 673.31 947.88 673.47L965.71 719.26C965.82 719.52 966.19 719.53 966.3 719.26L991.84 657.32C991.9 657.15 991.82 656.97 991.66 656.9L932.78 633.37C932.52 633.27 932.26 633.53 932.37 633.79L937.1 645.98C937.13 646.07 937.2 646.14 937.29 646.17L977.26 660.7ZM228.55 841.55C228.79 841.24 229.25 841.2 229.54 841.46L244.65 854.6C244.88 854.81 245.09 854.78 245.26 854.53L270.69 817.41C270.87 817.15 271.19 817.03 271.5 817.1L306.19 824.79C306.69 824.9 307.22 824.77 307.61 824.44L362.59 777.34C362.88 777.09 363.2 777.02 363.56 777.12C379.79 781.49 396.02 785.88 412.24 790.29C416.81 791.54 432.72 791.92 436.93 790.01C444.76 786.46 452.61 782.86 460.47 779.21C460.82 779.05 461.09 779.14 461.28 779.47L474.67 802.3C474.88 802.66 475.31 802.83 475.72 802.72L510.53 793.14C510.86 793.05 511.12 793.14 511.33 793.41L534.72 824.53C534.92 824.8 535.18 824.9 535.51 824.81L564.22 817.22C564.75 817.08 565.31 817.2 565.73 817.55L598.26 844.31C598.62 844.6 599.17 844.46 599.33 844.02L604.68 829.64C604.82 829.26 604.66 828.83 604.3 828.64L411.49 727.26C411.16 727.09 410.83 727.09 410.5 727.26L199.45 838.77C199.2 838.91 199.07 839.19 199.13 839.47L202.87 856.3C202.96 856.7 203.29 857.01 203.7 857.08L214.35 858.84C214.8 858.92 215.16 858.78 215.44 858.42L228.55 841.55ZM1068.41 833.37C1068.69 833.2 1068.7 832.8 1068.43 832.61L979.33 771.25C979.15 771.13 978.9 771.15 978.75 771.32L959.08 792.96C959.01 793.04 958.97 793.14 958.97 793.25L957.03 860.84C957.03 860.95 957.06 861.04 957.12 861.13L976.77 887.66C976.91 887.85 977.16 887.9 977.36 887.78L1068.41 833.37ZM349 857.18C349 857.1 349.03 857.02 349.09 856.95L406.58 795.42C406.76 795.23 406.66 794.92 406.4 794.87L365.18 787.05C365.08 787.03 364.98 787.06 364.9 787.13L313.11 832.89C313.04 832.95 313 833.04 313 833.14V888.82C313 888.92 313.05 889.02 313.13 889.08L348.47 916.59C348.68 916.75 349 916.6 349 916.32V857.18ZM446.89 824.47C446.94 824.69 447.21 824.78 447.38 824.63L466.72 807.2C466.83 807.1 466.85 806.93 466.76 806.8L457.1 793.24C457.02 793.13 456.88 793.08 456.75 793.13L441.33 798.92C441.18 798.97 441.1 799.12 441.14 799.27L446.89 824.47ZM479.22 810.98C479.1 811 479 811.1 478.98 811.22L475.08 830.74C475.06 830.84 475.09 830.94 475.17 831.02L492.47 848.39C492.67 848.58 493 848.45 493 848.17V827.22C493 827.09 493.07 826.98 493.19 826.93L516.54 817.13C516.74 817.05 516.8 816.81 516.66 816.65L507.13 805.17C507.06 805.09 506.94 805.05 506.83 805.07L479.22 810.98ZM562.78 859.15C562.91 859.05 563.1 859.06 563.21 859.18L586.62 884.59C586.78 884.77 587.07 884.7 587.15 884.48L596.86 855.12C596.89 855.01 596.86 854.88 596.77 854.79L563.08 825.15C563 825.08 562.89 825.06 562.78 825.09L537.26 832.94C537.12 832.98 537.03 833.11 537.04 833.26L540.94 876.39C540.96 876.64 541.25 876.76 541.44 876.6L562.78 859.15ZM264.99 900.79C265.03 900.93 265.14 901.03 265.27 901.05L286.32 904.82C286.6 904.87 286.82 904.59 286.71 904.33L277.03 881.19C276.99 881.1 276.99 881 277.03 880.91L298.76 831.46C298.86 831.25 298.73 831 298.49 830.96L275.27 827.08C275.13 827.05 274.99 827.11 274.91 827.23L253.12 858.83C253.06 858.92 253.04 859.03 253.07 859.13L264.99 900.79ZM689.51 1035.5C689.82 1035.16 689.77 1034.88 689.37 1034.66L617.64 995.35C617.24 995.13 616.98 994.72 616.96 994.27L610.04 850.56C610.03 850.45 609.95 850.35 609.83 850.34C609.72 850.32 609.61 850.39 609.58 850.5L539.18 1085.36C539.07 1085.74 538.73 1086 538.33 1086.02L236.82 1100.97C236.49 1100.99 236.32 1101.38 236.54 1101.63L281.6 1154.5C281.85 1154.8 282.25 1154.93 282.62 1154.84L341.53 1141.13C341.84 1141.06 342.13 1141.11 342.39 1141.3L399.62 1182.71C399.88 1182.9 400.2 1182.98 400.52 1182.95L572.98 1163.11C573.63 1163.04 574.23 1162.73 574.67 1162.24L689.51 1035.5ZM380.56 854.59L379.38 852.73C379.19 852.43 378.76 852.4 378.53 852.68C374.69 857.55 370.55 862.14 366.12 866.45C365.11 867.43 365.2 868.18 365.24 869.5C365.96 897.98 366.6 926.47 367.17 954.97C367.18 955.65 366.92 955.78 366.39 955.35L329.99 926.24C329.69 926 329.25 926.21 329.25 926.59V993.68C329.25 994.03 329.35 994.34 329.54 994.63L347.59 1021.23C347.82 1021.58 348.32 1021.61 348.59 1021.29L363.53 1003.45C363.76 1003.17 364.18 1003.13 364.47 1003.35L380.47 1015.54C380.78 1015.77 381.21 1015.75 381.49 1015.49L417.33 982.56C417.58 982.33 417.72 982.05 417.75 981.72C422.4 936.33 408.92 891.49 381.42 855.32C381.32 855.19 381.2 855.09 381.05 855.02C380.84 854.92 380.68 854.78 380.56 854.59ZM223.4 893.3L244.05 910.22C244.27 910.4 244.58 910.15 244.45 909.9C240.98 902.97 237.51 896.03 234.03 889.07C232.35 885.69 232.36 876.18 234.09 872.81C235.63 869.8 237.17 866.72 238.7 863.57C238.86 863.24 238.81 862.94 238.55 862.69L229.35 853.45C229.07 853.17 228.81 853.18 228.56 853.49L219.42 864.61C219.2 864.88 219.1 865.24 219.15 865.59L222.94 892.49C222.99 892.82 223.14 893.09 223.4 893.3ZM203.28 863.32C203.14 863.16 202.88 863.17 202.77 863.35L195.14 874.88C195.07 874.98 195.07 875.11 195.12 875.21L206.74 896.44C206.86 896.66 207.18 896.66 207.3 896.44L216.79 879.22C216.86 879.1 216.84 878.95 216.75 878.85L203.28 863.32ZM316.63 915.59L309.31 909.71C309.11 909.55 308.83 909.79 308.96 910.01L313.88 918.33C314.1 918.69 314.35 918.71 314.63 918.4L316.67 916.14C316.82 915.98 316.8 915.73 316.63 915.59ZM294.93 1054.86C294.97 1054.94 295.04 1055 295.12 1055.03L310.84 1060.9C310.95 1060.95 311.08 1060.93 311.17 1060.85L336.75 1041.17C336.88 1041.06 336.92 1040.87 336.83 1040.72L311.04 999.09C311.01 999.03 310.99 998.96 310.99 998.9L312.99 949.91C313 949.59 312.6 949.43 312.39 949.68L269.16 1000.84C269.08 1000.94 269.06 1001.09 269.12 1001.21L294.93 1054.86ZM916.52 1048L1022.44 1048.98C1022.67 1048.98 1022.81 1048.73 1022.69 1048.54L963.34 956.54C963.11 956.2 962.81 956.11 962.44 956.28L937.51 967.76C937.2 967.91 936.97 968.14 936.82 968.45C929.55 983.62 922.26 998.8 914.95 1013.97C914.36 1015.2 914.1 1016.5 914.18 1017.87C914.73 1027.72 915.33 1037.6 915.99 1047.5C916.02 1047.83 916.19 1047.99 916.52 1048ZM393.05 1050.76C393.03 1050.9 393.1 1051.05 393.23 1051.11L416.79 1062.89C416.89 1062.95 417.02 1062.94 417.12 1062.87L442.74 1045.16C442.86 1045.08 442.91 1044.92 442.86 1044.78L427.18 1001.46C427.1 1001.24 426.82 1001.17 426.64 1001.33L397.12 1028.93C397.07 1028.97 397.03 1029.04 397.02 1029.11L393.05 1050.76ZM459.49 1042.55C459.23 1042.79 459.24 1043.2 459.51 1043.43L482.66 1062.68C482.86 1062.85 483.16 1062.86 483.38 1062.69L498.75 1051.13C498.88 1051.03 499.06 1050.99 499.22 1051.03L534.42 1058.9C534.73 1058.97 535.04 1058.78 535.11 1058.47L544.87 1015.38C544.91 1015.19 544.85 1014.98 544.71 1014.84L533.33 1003.43C533.11 1003.21 532.76 1003.2 532.53 1003.4L497.34 1034.7C497.14 1034.88 496.83 1034.89 496.61 1034.73L481.38 1023.31C481.16 1023.14 480.85 1023.16 480.65 1023.34L459.49 1042.55ZM365.18 1031.46C365.07 1031.27 364.8 1031.24 364.65 1031.41L351.21 1046.86C351.12 1046.96 351.1 1047.09 351.15 1047.21L356.83 1060.7C356.91 1060.87 357.11 1060.95 357.28 1060.86L376.68 1051.16C376.85 1051.07 376.91 1050.86 376.82 1050.69L365.18 1031.46ZM253.08 1056.72C253.05 1056.86 253.12 1057 253.26 1057.06L270.86 1064.91C270.96 1064.95 271.07 1064.94 271.16 1064.88L282.53 1057.22C282.71 1057.1 282.72 1056.85 282.55 1056.72L257.41 1037.33C257.22 1037.19 256.96 1037.29 256.91 1037.52L253.08 1056.72ZM209.17 1076.73C209.1 1076.89 209.15 1077.07 209.28 1077.18L226.64 1090.68C226.82 1090.82 227.08 1090.77 227.2 1090.57L244.78 1061.31C244.88 1061.14 244.84 1060.92 244.68 1060.81L223.37 1045.3C223.18 1045.16 222.9 1045.23 222.8 1045.45L209.17 1076.73ZM355.3 1070.85C355.12 1070.93 354.91 1070.86 354.81 1070.7L343.19 1051.39C343.07 1051.21 342.83 1051.15 342.65 1051.27L313.15 1070.91C313.04 1070.98 312.91 1070.99 312.79 1070.94L289.22 1061.14C289.1 1061.09 288.95 1061.11 288.85 1061.19L271.19 1074.84C271.07 1074.93 270.92 1074.95 270.79 1074.88L251.32 1065.23C251.14 1065.14 250.91 1065.21 250.82 1065.39L237.4 1090.38C237.26 1090.65 237.46 1090.96 237.76 1090.94L530.64 1075C530.84 1074.99 531 1074.82 531 1074.62V1067.35C531 1067.17 530.87 1067.01 530.69 1066.98L501.07 1061.11C500.98 1061.09 500.87 1061.11 500.79 1061.17L483.2 1072.92C483.07 1073 482.91 1073 482.78 1072.91L451.23 1051.19C451.1 1051.1 450.92 1051.1 450.79 1051.19L419.18 1072.9C419.07 1072.97 418.92 1072.98 418.8 1072.93L385.19 1057.1C385.09 1057.05 384.97 1057.05 384.87 1057.09L355.3 1070.85ZM759.01 1156.82C759 1156.94 759.06 1157.06 759.16 1157.13L860.45 1221.65C860.67 1221.79 860.96 1221.64 860.96 1221.38L862.96 1099.28C862.96 1099.14 862.87 1099.01 862.73 1098.96L827.1 1087.08C827.01 1087.05 826.91 1087.06 826.83 1087.11L762.12 1125.9C762.03 1125.96 761.97 1126.05 761.96 1126.16L759.01 1156.82ZM693.81 1169.28C693.91 1169.13 693.86 1168.91 693.69 1168.83L663.09 1153.09C663.01 1153.04 662.91 1153.04 662.83 1153.08L632.25 1165.9C632.1 1165.96 632.03 1166.13 632.08 1166.29L653.82 1225.42C653.9 1225.66 654.22 1225.7 654.36 1225.49L693.81 1169.28Z"/><path fill="#282828" fill-rule="evenodd" d="M191 1081L273 1183L333 1166L392 1210L581 1188L598 1173L616 1178L650 1263L706 1185L752 1174L878 1257L881 1105L921 1067H1057L982 951L991 905L1101 837L995 760L985 722L1014 648L945 623L939 603.999L945 494L928 347L768.999 388L681 307L593 379L477 207L405 401L359 405L254 497L129 683L138 817L187 857L176 876L207 924L218 908L259 940V915L309.288 925.895L314.259 920.1L307 908L367 956L365 868L378.999 852C378.999 852 426.54 904.886 418 983L381 1017L364 1004L348 1023L329 995V925.534L317.488 916.314L246 999L254 1017L247 1016L242 1032L214 1015L191 1081Z" clip-rule="evenodd"/><path fill="#fff" fill-rule="evenodd" d="M367 574L435 614L477 594L401 540L367 574Z" clip-rule="evenodd"/><path fill="#591616" fill-rule="evenodd" d="M596 1153L697 1040L717 1051L829 996L825 758L769 706L829 630L915 616L962 734L971 732L977 759L949 788L946 864L973 899L964 946L929 963L905 1013L907 1052L866 1091L824 1078L752 1121L746 1158L703 1169L664 1145L623 1163L596 1153Z" clip-rule="evenodd"/><g clip-path="url(#clip0_1597_2)"><path fill="#fff" fill-rule="evenodd" d="M503 484L575 398L483 256L425 410L503 484Z" clip-rule="evenodd"/><path fill="#282828" fill-rule="evenodd" d="M485 286L441 406L501 466L485 286Z" clip-rule="evenodd"/><path fill="#fff" fill-rule="evenodd" d="M959 794L957 862L977 889L1069 834L979 772L959 794Z" clip-rule="evenodd"/><path fill="#282828" fill-rule="evenodd" d="M1052 833L968 831V798L981 787L1052 833Z" clip-rule="evenodd"/><path fill="#fff" fill-rule="evenodd" d="M937 969L914 1017L916 1049L1023 1050L963 957L937 969Z" clip-rule="evenodd"/><path fill="#282828" fill-rule="evenodd" d="M1009 1042L931 999L943 975L959 968L1009 1042Z" clip-rule="evenodd"/><path fill="#fff" fill-rule="evenodd" d="M762 1127L759 1158L861 1223L863 1100L827 1088L762 1127Z" clip-rule="evenodd"/><path fill="#282828" fill-rule="evenodd" d="M853 1205L799 1116L828 1098L854 1106L853 1205Z" clip-rule="evenodd"/><path fill="#fff" fill-rule="evenodd" d="M632 1167L654 1227L694 1170L663 1154L632 1167Z" clip-rule="evenodd"/><path fill="#282828" fill-rule="evenodd" d="M656 1213L662 1162L684 1173L656 1213Z" clip-rule="evenodd"/><path fill="#fff" fill-rule="evenodd" d="M932 634L992 658L966 721L947.698 674.169L978 662L937.135 647.141L932 634Z" clip-rule="evenodd"/><path fill="#fff" fill-rule="evenodd" d="M925 488L909 378L785 406L805 420L901 392L869 456L925 488Z" clip-rule="evenodd"/><path fill="#fff" fill-rule="evenodd" d="M739 398L681 396V350L633 392H617L681 340L739 398Z" clip-rule="evenodd"/></g><g clip-path="url(#clip1_1597_2)"><path fill="#7C7C7C" fill-rule="evenodd" d="M236 1102L282 1156L342 1142L400 1184L574 1164L690 1036L617 996L610 850L539 1087L236 1102Z" clip-rule="evenodd"/><path fill="#7C7C7C" fill-rule="evenodd" d="M626 990L718 1038L818 988L816 762L696 652L488 601L237 706L272 564L416 468L426 478L284 574L259 667L404 528L490 590L698 642L734 674L768 568L916 498L766 410L589 402L504 502L417 419L369 421L270 507L150 687L208 708L161 813L188 835L410 718L616 824L626 990Z" clip-rule="evenodd"/><path fill="#505050" fill-rule="evenodd" d="M740 678L776 578L922 506L918 602L824 618L762 698L740 678Z" clip-rule="evenodd"/></g><g clip-path="url(#clip2_1597_2)"><path fill="#505050" fill-rule="evenodd" d="M203 858L215 860L229 842L245 856L271 818L307 826L363 778L415 792H435L461 780L475 804L511 794L535 826L565 818L599 846L605 830L411 728L199 840L203 858Z" clip-rule="evenodd"/><path fill="#505050" fill-rule="evenodd" d="M237 1092L251 1066L271 1076L289 1062L313 1072L343 1052L355 1072L385 1058L419 1074L451 1052L483 1074L501 1062L531 1068V1076L237 1092Z" clip-rule="evenodd"/><path fill="#282828" fill-rule="evenodd" d="M385 832L409 804H431L443 836L469 814L463 832L501 872L503 836L525 826L533 898L561 876L583 896L549 1004L531 990L497 1022L479 1010L451 1036L435 986C435 986 447.511 887.525 385 832Z" clip-rule="evenodd"/></g><g clip-path="url(#clip3_1597_2)"><path fill="#fff" fill-rule="evenodd" d="M203 864L195 876L207 898L217 880L203 864Z" clip-rule="evenodd"/><path fill="#fff" fill-rule="evenodd" d="M229 854L219 866L223 894L245 912L233 888V876L239 864L229 854Z" clip-rule="evenodd"/><path fill="#fff" fill-rule="evenodd" d="M253 860L265 902L287 906L277 882L299 832L275 828L253 860Z" clip-rule="evenodd"/><path fill="#fff" fill-rule="evenodd" d="M313 834V890L349 918V858L407 796L365 788L313 834Z" clip-rule="evenodd"/><path fill="#fff" fill-rule="evenodd" d="M441 800L447 826L467 808L457 794L441 800Z" clip-rule="evenodd"/><path fill="#fff" fill-rule="evenodd" d="M475 832L493 850V828L517 818L507 806L479 812L475 832Z" clip-rule="evenodd"/><path fill="#fff" fill-rule="evenodd" d="M541 878L537 834L563 826L597 856L587 886L563 860L541 878Z" clip-rule="evenodd"/><path fill="#fff" fill-rule="evenodd" d="M545 1016L535 1060L499 1052L483 1064L459 1044L481 1024L497 1036L533 1004L545 1016Z" clip-rule="evenodd"/><path fill="#fff" fill-rule="evenodd" d="M443 1046L417 1064L393 1052L397 1030L427 1002L443 1046Z" clip-rule="evenodd"/><path fill="#fff" fill-rule="evenodd" d="M365 1032L351 1048L357 1062L377 1052L365 1032Z" clip-rule="evenodd"/><path fill="#fff" fill-rule="evenodd" d="M311 1062L337 1042L311 1000L313 950L269 1002L295 1056L311 1062Z" clip-rule="evenodd"/><path fill="#fff" fill-rule="evenodd" d="M271 1066L283 1058L257 1038L253 1058L271 1066Z" clip-rule="evenodd"/><path fill="#fff" fill-rule="evenodd" d="M227 1092L245 1062L223 1046L209 1078L227 1092Z" clip-rule="evenodd"/></g><defs><clipPath id="clip0_1597_2"><rect width="647" height="974" fill="#fff" transform="translate(423 254)"/></clipPath><clipPath id="clip1_1597_2"><rect width="775" height="785" fill="#fff" transform="translate(148 400)"/></clipPath><clipPath id="clip2_1597_2"><rect width="409" height="367" fill="#fff" transform="translate(197 726)"/></clipPath><clipPath id="clip3_1597_2"><rect width="405" height="307" fill="#fff" transform="translate(193 786)"/></clipPath></defs></svg>