<svg xmlns="http://www.w3.org/2000/svg" width="1373" height="1373" fill="none" viewBox="0 0 1373 1373"><path fill="#E86D38" d="M983.59 1197.84C981.61 1199.42 978.87 1200.46 977.2 1201.44C950.38 1217.15 920.91 1231.92 888.79 1245.76C884.08 1247.79 880.54 1249.09 878.19 1249.64L881.05 1104.47C881.06 1104.1 881.19 1103.78 881.46 1103.53L920.1 1066.89C920.54 1066.48 921.11 1066.25 921.71 1066.25L1055.02 1066.24C1056.43 1066.24 1056.76 1065.65 1055.99 1064.46L982.28 950.44C982.11 950.16 982.04 949.83 982.1 949.51L990.81 905.06C990.93 904.45 991.3 903.91 991.83 903.58L1100.09 836.65C1100.72 836.26 1100.74 835.84 1100.14 835.4L995.74 759.55C995.24 759.19 994.89 758.66 994.73 758.06L985.14 721.4C985.07 721.11 985.08 720.83 985.19 720.56L988.46 712.21C989.61 712.42 990.57 712.19 991.36 711.53C991.61 711.32 991.91 711.19 992.24 711.16C993.09 711.08 993.92 710.91 994.72 710.66C1048.32 693.85 1089.15 664.99 1118.54 616.84C1138.39 584.32 1151.22 546.44 1156.5 509.5C1158.95 492.41 1160.28 481.07 1160.5 475.5C1160.73 469.63 1160.96 465.65 1161.17 463.54C1161.35 461.71 1160.37 460.12 1160.56 458.06C1160.79 455.39 1161.01 452.68 1161.21 449.95C1161.28 449.01 1160.1 448.54 1159.5 449.27C1157.55 451.65 1155.68 455.18 1154.46 457.03C1120.26 509.12 1046.92 519.25 990.39 518.24C983.2 518.11 973.9 518.14 965.59 517.32C964.01 517.17 962.03 517.82 960.18 516.57C959.91 516.39 959.55 516.47 959.38 516.75L959.04 517.34C958.92 517.54 958.65 517.61 958.44 517.48L956.73 516.44C956.36 516.22 955.88 516.33 955.65 516.69C955.44 517.03 955.17 517.2 954.84 517.19C954.63 517.19 954.28 517 953.81 516.63C953.05 516.03 952.22 516.03 951.31 516.64C951.04 516.82 950.76 516.84 950.47 516.69L949.3 516.11C949.03 515.97 948.76 515.98 948.5 516.14C947.53 516.73 946.67 516.62 945.93 515.81C945.69 515.55 945.33 515.43 944.98 515.5L943.76 515.76C944.24 506.25 945.41 496.63 944.32 487.15C938.93 440.3 933.51 393.58 928.08 346.99C928.01 346.35 927.66 346.11 927.03 346.27L769.47 386.87C769.14 386.95 768.86 386.88 768.61 386.65L681.26 306.25C681.11 306.11 680.89 306.1 680.74 306.23L593.26 377.74C593.12 377.86 592.91 377.83 592.8 377.67L496.61 235.1C499.71 234 502.65 234.15 505.74 233.13C507.88 232.41 510.12 232.66 512.13 232.2C515.97 231.34 520.58 231.02 523.62 230.56C556.7 225.55 590.47 222.67 624.94 221.94C632.27 221.78 638.61 222.01 645.44 221.79C650.22 221.64 655.38 222.24 659.68 222.17C663.36 222.12 665.82 222.12 667.06 222.17C699.39 223.56 731.53 226.77 763.49 231.79C770.12 232.84 781.23 234.78 796.81 237.63C858.72 251.67 920.66 261.69 984 264.82C1025.04 266.84 1066.65 264.601 1107.13 257.3C1109.77 256.83 1113.96 255.49 1117.41 254.98C1127.43 253.49 1138.04 249.87 1145.74 247.48C1211.04 227.18 1268.26 182.8 1281.81 112.35C1281.89 111.96 1282.39 111.85 1282.62 112.17C1283.84 113.86 1284.94 115.69 1285.92 117.67C1315.5 177.3 1339.4 238.55 1355.22 303.26C1357.74 313.56 1359.79 324.49 1361.8 335.13C1361.81 335.19 1362.03 335.91 1362.48 337.29C1362.89 338.55 1362.52 339.42 1362.73 340.53C1366.21 358.98 1368.62 377.57 1369.96 396.29C1369.97 396.36 1370.13 397.65 1370.46 400.18C1370.72 402.11 1370.46 403.79 1370.69 405.57C1371.29 410.31 1370.52 415.28 1371.48 417.95C1371.66 418.46 1371.81 418.87 1371.81 418.88C1371.48 423.23 1371.59 428.16 1371.82 432.6C1372.25 441.02 1372.18 449.43 1371.61 457.84C1371.43 460.36 1372.29 462.89 1371.98 465.5C1371.1 473.11 1371.25 480.28 1370.14 487.67C1368.75 496.94 1368.58 506.42 1367.13 515.71C1364.34 533.5 1361.37 549.09 1358.21 562.49C1329.78 683.08 1253.89 789.56 1158.05 866.25C1132.72 886.52 1106.46 904.87 1078.05 921.04C1076.84 921.73 1076.92 922.23 1078.27 922.54C1142.51 937.29 1207.97 915.18 1255.44 870.93C1255.83 870.57 1256.43 870.98 1256.25 871.47C1225.16 954.82 1177.02 1029.37 1115.25 1093.37C1110.93 1097.84 1106.16 1102.49 1100.93 1107.33C1082.02 1124.84 1062.69 1142.58 1042.03 1158.03C1023.1 1172.18 1003.62 1185.45 983.59 1197.84Z"/><path fill="#E86D38" d="M463.48 242.49L405.17 399.5C405.05 399.81 404.82 399.99 404.49 400.02L359.63 403.95C359.31 403.98 359.03 404.1 358.78 404.31L344.96 416.24C340.37 417.62 335.84 418.81 331.37 419.82C310.05 424.64 289.74 431.17 270.34 440.36C233.45 457.84 194.7 480.78 163.73 508.48C153.94 517.23 143.34 526.27 134.73 535.17C80.3802 591.38 48.2102 658.82 38.2002 737.48C37.3102 744.45 36.7102 751.45 36.4002 758.46C36.1002 765.31 35.1302 774.53 35.3402 782.6C35.5502 790.45 35.4202 798.15 35.7702 806.02C37.8002 852.15 46.3402 897.02 61.4002 940.65C61.5502 941.09 61.4002 941.29 60.9402 941.26L60.2902 941.21C60.2402 941.21 60.2202 941.15 60.2502 941.12C60.3102 941.06 60.3702 941 60.4302 940.94C60.5402 940.84 60.5202 940.78 60.3702 940.77L59.7902 940.74C49.7502 917.77 42.2402 898.86 37.2502 884C33.5602 873.02 28.4802 855.43 21.9902 831.22L23.5602 832.68C23.8502 832.96 24.0102 832.9 24.0202 832.49C24.0602 831.24 23.7602 830.06 23.1202 828.95C22.9502 828.65 22.9102 828.3 23.0102 827.97C23.4002 826.68 23.2002 825.48 22.4102 824.37C22.2202 824.1 22.1102 823.79 22.0902 823.46C21.5402 813.71 19.2702 806.54 18.9602 797.89C18.9502 797.59 18.8802 797.29 18.7402 797.02C18.0002 795.61 18.2902 794.1 18.1802 792.84C15.5002 761.99 14.1902 732.18 17.1602 701.19C19.2402 679.47 22.7102 657.97 27.5802 636.7C28.6002 632.23 29.8802 627.31 31.4202 621.92C55.0402 539.35 98.1802 469.25 158.46 408.2C163.97 402.63 167.83 398.92 170.06 397.07C182.25 386.34 194.51 374.83 206.84 365.03C279.42 307.28 365.72 266.62 455.89 244.35C457.87 243.86 460.65 242.28 463.48 242.49Z"/><path fill="#E86D38" d="M615.66 1178.48L648.61 1260.7C649 1261.66 649.6 1261.82 650.42 1261.18C650.7 1260.96 651.12 1260.46 651.68 1259.68C669.66 1234.63 687.64 1209.57 705.63 1184.52C705.86 1184.21 706.15 1184.02 706.52 1183.93L750.45 1173.43C750.78 1173.35 751.13 1173.41 751.42 1173.6L871.07 1252.48C857.12 1258.4 841.62 1264.02 824.56 1269.33C777.51 1283.98 730.61 1294.71 683.88 1301.52C683.8 1301.53 683.45 1301.65 682.83 1301.88C682.41 1302.04 681.98 1301.96 681.54 1301.64C681.28 1301.45 681 1301.42 680.7 1301.54C676.23 1303.36 672.6 1302.81 668.72 1304C668.41 1304.09 668.11 1304.06 667.82 1303.9C666.59 1303.23 665.74 1304.06 664.77 1304.2C591.03 1314.19 518.21 1313.75 445.92 1295.84C445.87 1295.83 443.07 1295.17 437.53 1293.88C431.39 1292.45 425.64 1290.09 419.49 1288.64C419.12 1288.55 418.85 1288.67 418.66 1289L418.2 1289.8C389.92 1279.58 361.8 1268.42 335.27 1254.2C284.46 1226.96 239.08 1192.48 199.14 1150.77C199.43 1150.6 199.48 1150.37 199.29 1150.1C199.13 1149.87 199.18 1149.72 199.45 1149.64L199.84 1149.51C200.19 1149.4 200.51 1149.47 200.78 1149.72C203.27 1151.95 205.16 1153.98 206.44 1155.8C207.53 1157.35 208.73 1157.55 209.73 1158.52C269.48 1216.75 347.95 1255.05 432.99 1251.08C473.32 1249.21 508.78 1234.26 546.88 1216.81C570.69 1205.91 593.61 1193.13 615.66 1178.48Z"/><path fill="#FABC3C" d="M796.81 237.63C781.23 234.78 770.12 232.84 763.49 231.79C731.53 226.77 699.39 223.56 667.06 222.17C665.82 222.12 663.36 222.12 659.68 222.17C655.38 222.24 650.22 221.64 645.44 221.79C638.61 222.01 632.27 221.78 624.94 221.94C590.47 222.67 556.7 225.55 523.62 230.56C520.58 231.02 515.97 231.34 512.13 232.2C510.12 232.66 507.88 232.41 505.74 233.13C502.65 234.15 499.71 234 496.61 235.1L477.38 206.61C477.14 206.26 476.94 206.28 476.79 206.68L463.48 242.49C460.65 242.28 457.87 243.86 455.89 244.35C365.72 266.62 279.42 307.28 206.84 365.03C194.51 374.83 182.25 386.34 170.06 397.07C169.5 395.33 169.34 393.83 169.58 392.58C186.54 334.89 225.53 280.91 267.67 238.66C271.92 234.39 281.27 226.03 295.72 213.56C421.877 104.7 598.651 103.233 753.99 127.29C760.81 128.35 770.09 128.62 777.43 127.96C833.18 122.96 877.7 77.7099 906.95 33.7699C907.94 32.2699 908.89 32.2999 909.78 33.8599C912.41 38.4299 912.92 49.6199 913.56 55.0399C923.11 135.27 860.58 201.07 796.81 237.63Z"/><path fill="#C9462D" d="M344.96 416.24C315.58 442.07 286.28 467.76 257.06 493.29C255.1 495 253.39 496.94 251.94 499.1C211.05 559.93 170.16 620.78 129.26 681.64C129.08 681.9 129 682.21 129.02 682.52L137.89 814.49C137.99 815.96 138.69 817.32 139.83 818.24C155.666 831.131 173.5 844 186.6 856.65L176.48 874.21C176.12 874.84 176.15 875.61 176.54 876.22L207.02 923.26C207.37 923.79 207.72 923.8 208.08 923.28L217.95 909.06C218.33 908.52 219.09 908.4 219.61 908.81L258.92 939.54C259.16 939.72 259.5 939.56 259.5 939.26V915.82C259.5 915.31 259.75 915.11 260.24 915.22L307.75 925.43C308.3 925.55 308.39 925.82 308.02 926.25L246.56 997.35C246.18 997.8 246.08 998.42 246.32 998.96L253.51 1015.19C253.65 1015.51 253.39 1015.86 253.04 1015.81L247.82 1015.04C247.37 1014.98 246.94 1015.25 246.8 1015.68L242.33 1029.78C242.1 1030.51 241.65 1030.67 241 1030.28L214.64 1014.28C214.23 1014.03 213.95 1014.13 213.79 1014.58L191.21 1079.48C191.08 1079.85 191.15 1080.27 191.4 1080.58L272.61 1181.63C272.88 1181.96 273.32 1182.11 273.73 1181.99L332.55 1165.37C332.88 1165.28 333.19 1165.33 333.47 1165.54L391.36 1208.67C391.79 1208.98 392.26 1209.11 392.78 1209.05L579.45 1187.28C580.39 1187.17 581.28 1186.77 581.99 1186.14L597.35 1172.59C597.61 1172.36 597.98 1172.28 598.32 1172.38C603.48 1173.83 608.56 1175.27 613.57 1176.72C614.04 1176.85 614.44 1177.08 614.76 1177.39C615.29 1177.89 615.59 1178.25 615.66 1178.48C593.61 1193.13 570.69 1205.91 546.88 1216.81C508.78 1234.26 473.32 1249.21 432.99 1251.08C347.95 1255.05 269.48 1216.75 209.73 1158.52C208.73 1157.55 207.53 1157.35 206.44 1155.8C205.16 1153.98 203.27 1151.95 200.78 1149.72C200.51 1149.47 200.19 1149.4 199.84 1149.51L199.45 1149.64C199.18 1149.72 199.13 1149.87 199.29 1150.1C199.48 1150.37 199.43 1150.6 199.14 1150.77C180.09 1129.92 161.04 1109.01 144.3 1086.2C110.94 1040.76 82.77 992.27 59.79 940.74L60.37 940.77C60.52 940.78 60.54 940.84 60.43 940.94C60.37 941 60.31 941.06 60.25 941.12C60.22 941.15 60.24 941.21 60.29 941.21L60.94 941.26C61.4 941.29 61.55 941.09 61.4 940.65C46.34 897.02 37.8 852.15 35.77 806.02C35.42 798.15 35.55 790.45 35.34 782.6C35.13 774.53 36.1 765.31 36.4 758.46C36.71 751.45 37.31 744.45 38.2 737.48C48.21 658.82 80.38 591.38 134.73 535.17C143.34 526.27 153.94 517.23 163.73 508.48C194.7 480.78 233.45 457.84 270.34 440.36C289.74 431.17 310.05 424.64 331.37 419.82C335.84 418.81 340.37 417.62 344.96 416.24Z"/><path fill="#C9462D" d="M988.46 712.21L1013.78 647.52C1013.91 647.19 1013.81 646.96 1013.47 646.84L945.52 622.17C945.2 622.05 944.99 621.83 944.88 621.51C942.94 615.46 938.84 606.28 939.17 600.11C940.7 571.98 942.23 543.86 943.76 515.76L944.98 515.5C945.33 515.43 945.69 515.55 945.93 515.81C946.67 516.62 947.53 516.73 948.5 516.14C948.76 515.98 949.03 515.97 949.3 516.11L950.47 516.69C950.76 516.84 951.04 516.82 951.31 516.64C952.22 516.03 953.05 516.03 953.81 516.63C954.28 517 954.63 517.19 954.84 517.19C955.17 517.2 955.44 517.03 955.65 516.69C955.88 516.33 956.36 516.22 956.73 516.44L958.44 517.48C958.65 517.61 958.92 517.54 959.04 517.34L959.38 516.75C959.55 516.47 959.91 516.39 960.18 516.57C962.03 517.82 964.01 517.17 965.59 517.32C973.9 518.14 983.2 518.11 990.39 518.24C1046.92 519.25 1120.26 509.12 1154.46 457.03C1155.68 455.18 1157.55 451.65 1159.5 449.27C1160.1 448.54 1161.28 449.01 1161.21 449.95C1161.01 452.68 1160.79 455.39 1160.56 458.06C1160.37 460.12 1161.35 461.71 1161.17 463.54C1160.96 465.65 1160.73 469.63 1160.5 475.5C1160.28 481.07 1158.95 492.41 1156.5 509.5C1151.22 546.44 1138.39 584.32 1118.54 616.84C1089.15 664.99 1048.32 693.85 994.72 710.66C993.92 710.91 993.09 711.08 992.24 711.16C991.91 711.19 991.61 711.32 991.36 711.53C990.57 712.19 989.61 712.42 988.46 712.21Z"/><path fill="#C9462D" d="M381.05 855.02C381.2 855.09 381.32 855.19 381.42 855.32C408.92 891.49 422.4 936.33 417.75 981.72C417.72 982.05 417.58 982.33 417.33 982.56L381.49 1015.49C381.21 1015.75 380.78 1015.77 380.47 1015.54L364.47 1003.35C364.18 1003.13 363.76 1003.17 363.53 1003.45L348.59 1021.29C348.32 1021.61 347.82 1021.58 347.59 1021.23L329.54 994.63C329.35 994.34 329.25 994.03 329.25 993.68V926.59C329.25 926.21 329.69 926 329.99 926.24L366.39 955.35C366.92 955.78 367.18 955.65 367.17 954.97C366.6 926.47 365.96 897.98 365.24 869.5C365.2 868.18 365.11 867.43 366.12 866.45C370.55 862.14 374.69 857.55 378.53 852.68C378.76 852.4 379.19 852.43 379.38 852.73L380.56 854.59C380.68 854.78 380.84 854.92 381.05 855.02Z"/><path fill="#C9462D" d="M316.63 915.59C316.8 915.73 316.82 915.98 316.67 916.14L314.63 918.4C314.35 918.71 314.1 918.69 313.88 918.33L308.96 910.01C308.83 909.79 309.11 909.55 309.31 909.71L316.63 915.59Z"/><path fill="#F19143" d="M169.58 392.58C169.34 393.83 169.5 395.33 170.06 397.07C167.83 398.92 163.97 402.63 158.46 408.2C98.1799 469.25 55.0399 539.35 31.4199 621.92C29.8799 627.31 28.5999 632.23 27.5799 636.7C22.7099 657.97 19.2399 679.47 17.1599 701.19C14.1899 732.18 15.4999 761.99 18.1799 792.84C18.2899 794.1 17.9999 795.61 18.7399 797.02C18.8799 797.29 18.9499 797.59 18.9599 797.89C19.2699 806.54 21.5399 813.71 22.0899 823.46C22.1099 823.79 22.2199 824.1 22.4099 824.37C23.1999 825.48 23.3999 826.68 23.0099 827.97C22.9099 828.3 22.9499 828.65 23.1199 828.95C23.7599 830.06 24.0599 831.24 24.0199 832.49C24.0099 832.9 23.8499 832.96 23.5599 832.68L21.9899 831.22C20.1999 822.06 17.9599 814.56 16.2999 806.39C15.1699 800.84 13.9699 795.31 12.6999 789.8C12.5899 789.31 12.5299 788.77 12.5199 788.17C12.4799 786.13 11.5299 784.95 11.4099 782.88C11.2099 779.15 10.2999 775.51 9.6199 771.84C9.3499 770.33 9.6999 768.41 8.4999 766.55C8.3199 766.26 8.2499 765.93 8.2799 765.6C8.4899 763.43 8.2299 761.31 7.4899 759.25C7.3699 758.92 7.3199 758.59 7.3499 758.24C7.3799 757.82 7.3599 757.42 7.2999 757.03C5.0799 742.89 4.0699 730.47 2.5599 714C2.4199 712.55 2.7399 711.19 2.4799 709.93C1.3799 704.63 1.7199 698.52 1.4299 693.1C0.909903 683.43 1.3999 673.6 0.599903 663.99C0.449903 662.18 1.0199 659.99 0.989903 658.32C0.929903 655.05 1.0499 651.78 1.3399 648.52C1.5199 646.51 0.719903 644.51 0.919903 642.49C1.6899 634.66 1.4699 626.47 2.6799 618.79C3.5299 613.41 3.9799 608 4.0399 602.57C4.0599 601.19 5.0699 599.68 5.0199 598.75C4.7799 594.81 5.9699 590.11 6.2799 587.42C7.9099 573.63 11.0199 559.66 13.9899 546.09C37.9999 436.4 99.2499 338.2 184.2 265.79C185.49 264.68 185.91 264.95 185.46 266.59C177.11 296.88 171.75 327.45 169.38 358.32C168.59 368.61 168.65 380.03 169.58 392.58Z"/><path fill="#F19143" d="M983.59 1197.84C1005.64 1201.07 1027.82 1203.27 1050.14 1204.45C1050.9 1204.49 1051.93 1203.95 1052.61 1204C1077.14 1205.89 1102.46 1205.15 1126.99 1203.4C1127.69 1203.35 1128.07 1203.34 1128.14 1203.37C1129.07 1203.84 1129.12 1204.38 1128.28 1204.99C1032.76 1274.55 926.5 1317.89 809.51 1335.01C788.71 1338.05 764.01 1340.59 740.19 1340.86C695.76 1341.36 662.39 1341.88 624 1337.74C559.15 1330.74 495.63 1316.59 433.44 1295.3C427.03 1293.11 421.95 1291.27 418.2 1289.8L418.66 1289C418.85 1288.67 419.12 1288.55 419.49 1288.64C425.64 1290.09 431.39 1292.45 437.53 1293.88C443.07 1295.17 445.87 1295.83 445.92 1295.84C518.21 1313.75 591.03 1314.19 664.77 1304.2C665.74 1304.06 666.59 1303.23 667.82 1303.9C668.11 1304.06 668.41 1304.09 668.72 1304C672.6 1302.81 676.23 1303.36 680.7 1301.54C681 1301.42 681.28 1301.45 681.54 1301.64C681.98 1301.96 682.41 1302.04 682.83 1301.88C683.45 1301.65 683.8 1301.53 683.88 1301.52C730.61 1294.71 777.51 1283.98 824.56 1269.33C841.62 1264.02 857.12 1258.4 871.07 1252.48L877.15 1255.66C877.52 1255.85 877.96 1255.59 877.97 1255.18L878.19 1249.64C880.54 1249.09 884.08 1247.79 888.79 1245.76C920.91 1231.92 950.38 1217.15 977.2 1201.44C978.87 1200.46 981.61 1199.42 983.59 1197.84Z"/></svg>